<?xml version="1.0" encoding="UTF-8"?>
<!DOCTYPE svg PUBLIC "-//W3C//DTD SVG 1.1//EN" "http://www.w3.org/Graphics/SVG/1.1/DTD/svg11.dtd">
<!-- Creator: CorelDRAW 2017 -->
<svg xmlns="http://www.w3.org/2000/svg" xml:space="preserve" width="260mm" height="100mm" version="1.1" style="shape-rendering:geometricPrecision; text-rendering:geometricPrecision; image-rendering:optimizeQuality; fill-rule:evenodd; clip-rule:evenodd"
viewBox="0 0 26000 10000"
 xmlns:xlink="http://www.w3.org/1999/xlink">
 <defs>
  <style type="text/css">
   <![CDATA[
    .fil0 {fill:none}
    .fil1 {fill:#1A1A1A}
   ]]>
  </style>
 </defs>
 <g id="Capa_x0020_1">
  <metadata id="CorelCorpID_0Corel-Layer"/>
  <rect class="fil0" width="26000" height="10000"/>
  <path class="fil1" d="M227 1901c0,0 1185,50 2993,0l2357 5212 2344 -5212c0,0 1945,87 2906,0l12 399c0,0 -1122,50 -1135,387 -12,337 -62,2768 -62,2768l31 3024c0,0 -44,299 218,418 262,118 954,193 954,193l6 396c0,0 -2819,-117 -4047,14l-12 -412 754 -137c0,0 449,-50 449,-542l19 -4919 -2694 5936 -474 37 -2681 -5923c0,0 37,4701 87,5063 50,362 623,449 623,449 0,0 393,53 461,103l6 330c0,0 -2538,-75 -3108,0l16 -390c0,0 736,-62 979,-231 243,-168 193,-842 193,-842l75 -4636c0,0 150,-929 -480,-985 -630,-56 -798,-100 -798,-100l7 -400z"/>
  <path class="fil1" d="M11032 3131l2594 -3005 2382 2519c0,0 -474,636 -175,1147 299,511 1035,823 1035,823 0,0 1122,611 1060,1210 -62,599 -536,1397 -536,1397 0,0 -1135,2706 -3043,2482 0,0 -748,-137 -1035,-374 0,0 1833,287 2818,-1010 0,0 -1097,-723 -1471,-1147 -374,-424 -723,-1085 -723,-1085 0,0 -305,-917 -449,-1347 -143,-430 -224,-599 -224,-599 0,0 -268,-711 -81,-1035 187,-324 206,-206 711,-455 505,-249 786,-661 786,-661l-892 -954 -2756 2095zm3442 -200c119,0 215,94 215,209 0,115 -96,209 -215,209 -119,0 -215,-94 -215,-209 0,-115 96,-209 215,-209z"/>
  <path class="fil1" d="M25285 7900c0,0 -1471,898 -2968,486 0,0 -1484,-324 -1733,-1858 -249,-1534 125,-2506 125,-2506 0,0 599,-1596 2195,-1459 1596,137 1733,898 1733,898l287 1135 634 0 -86 -2182c0,0 -1733,-511 -2718,-449 0,0 -1509,-37 -2332,611 0,0 -985,449 -1496,1895 0,0 -736,2270 648,3828 1384,1559 4140,910 4140,910 0,0 1010,-278 1827,-870l-256 -440z"/>
 </g>
</svg>
